<svg width="22" height="22" viewBox="0 0 22 22" fill="none" xmlns="http://www.w3.org/2000/svg">
<g clip-path="url(#clip0_3948_32226)">
<path d="M22 4H0V18.6668H22V4Z" fill="white"/>
<path d="M22 5.83319H0V7.66637H22V5.83319Z" fill="#D80027"/>
<path d="M22 9.50006H0V11.3332H22V9.50006Z" fill="#D80027"/>
<path d="M22 13.1664H0V14.9996H22V13.1664Z" fill="#D80027"/>
<path d="M22 16.8332H0V18.6664H22V16.8332Z" fill="#D80027"/>
<path d="M11 4H0V11.8975H11V4Z" fill="#2E52B2"/>
<path d="M4.28925 7.23529L4.11209 7.78031H3.53906L4.00274 8.11697L3.82558 8.66194L4.28925 8.32528L4.75263 8.66194L4.57551 8.11697L5.03919 7.78031H4.46611L4.28925 7.23529Z" fill="white"/>
<path d="M4.46611 9.74712L4.28925 9.20215L4.11209 9.74712H3.53906L4.00274 10.0838L3.82558 10.6288L4.28925 10.2921L4.75263 10.6288L4.57551 10.0838L5.03919 9.74712H4.46611Z" fill="white"/>
<path d="M2.04428 9.74712L1.86738 9.20215L1.69022 9.74712H1.11719L1.58086 10.0838L1.4037 10.6288L1.86738 10.2921L2.3308 10.6288L2.15368 10.0838L2.61727 9.74712H2.04428Z" fill="white"/>
<path d="M1.86738 7.23529L1.69022 7.78031H1.11719L1.58086 8.11697L1.4037 8.66194L1.86738 8.32528L2.3308 8.66194L2.15368 8.11697L2.61727 7.78031H2.04428L1.86738 7.23529Z" fill="white"/>
<path d="M4.28925 5.26843L4.11209 5.81349H3.53906L4.00274 6.15019L3.82558 6.69517L4.28925 6.35846L4.75263 6.69517L4.57551 6.15019L5.03919 5.81349H4.46611L4.28925 5.26843Z" fill="white"/>
<path d="M1.86738 5.26843L1.69022 5.81349H1.11719L1.58086 6.15019L1.4037 6.69517L1.86738 6.35846L2.3308 6.69517L2.15368 6.15019L2.61727 5.81349H2.04428L1.86738 5.26843Z" fill="white"/>
<path d="M6.71109 7.23529L6.53397 7.78031H5.96094L6.42457 8.11697L6.2475 8.66194L6.71109 8.32528L7.17455 8.66194L6.99739 8.11697L7.46106 7.78031H6.88803L6.71109 7.23529Z" fill="white"/>
<path d="M6.88803 9.74712L6.71109 9.20215L6.53397 9.74712H5.96094L6.42457 10.0838L6.2475 10.6288L6.71109 10.2921L7.17455 10.6288L6.99739 10.0838L7.46106 9.74712H6.88803Z" fill="white"/>
<path d="M9.30986 9.74712L9.13296 9.20215L8.9558 9.74712H8.38281L8.8464 10.0838L8.66929 10.6288L9.13296 10.2921L9.59638 10.6288L9.41922 10.0838L9.88289 9.74712H9.30986Z" fill="white"/>
<path d="M9.13296 7.23529L8.9558 7.78031H8.38281L8.8464 8.11697L8.66929 8.66194L9.13296 8.32528L9.59638 8.66194L9.41922 8.11697L9.88289 7.78031H9.30986L9.13296 7.23529Z" fill="white"/>
<path d="M6.71109 5.26843L6.53397 5.81349H5.96094L6.42457 6.15019L6.2475 6.69517L6.71109 6.35846L7.17455 6.69517L6.99739 6.15019L7.46106 5.81349H6.88803L6.71109 5.26843Z" fill="white"/>
<path d="M9.13296 5.26843L8.9558 5.81349H8.38281L8.8464 6.15019L8.66929 6.69517L9.13296 6.35846L9.59638 6.69517L9.41922 6.15019L9.88289 5.81349H9.30986L9.13296 5.26843Z" fill="white"/>
</g>
<defs>
<clipPath id="clip0_3948_32226">
<rect y="4" width="22" height="14.6668" rx="2" fill="white"/>
</clipPath>
</defs>
</svg>
