<?xml version="1.0" encoding="UTF-8"?>
<svg width="24px" height="26px" viewBox="0 0 24 26" version="1.1" xmlns="http://www.w3.org/2000/svg" xmlns:xlink="http://www.w3.org/1999/xlink">
    <!-- Generator: Sketch 60.1 (88133) - https://sketch.com -->
    <title>sliders-h-solid</title>
    <desc>Created with Sketch.</desc>
    <g id="Page-1" stroke="none" stroke-width="1" fill="none" fill-rule="evenodd">
        <g id="Home-search" transform="translate(-27.000000, -70.000000)" fill-rule="nonzero">
            <g id="Group-5">
                <g id="sliders-h-solid" transform="translate(27.000000, 70.000000)">
                    <path d="M2.14772727,7.4025974 L1.43181818,7.4025974 L1.43181818,7.36363636 C1.43181818,7.34220779 1.41647727,7.32467532 1.39772727,7.32467532 L1.32954545,7.32467532 C1.31079545,7.32467532 1.29545455,7.34220779 1.29545455,7.36363636 L1.29545455,7.4025974 L1.125,7.4025974 C1.10625,7.4025974 1.09090909,7.42012987 1.09090909,7.44155844 L1.09090909,7.51948052 C1.09090909,7.54090909 1.10625,7.55844156 1.125,7.55844156 L1.29545455,7.55844156 L1.29545455,7.5974026 C1.29545455,7.61883117 1.31079545,7.63636364 1.32954545,7.63636364 L1.39772727,7.63636364 C1.41647727,7.63636364 1.43181818,7.61883117 1.43181818,7.5974026 L1.43181818,7.55844156 L2.14772727,7.55844156 C2.16647727,7.55844156 2.18181818,7.54090909 2.18181818,7.51948052 L2.18181818,7.44155844 C2.18181818,7.42012987 2.16647727,7.4025974 2.14772727,7.4025974 Z M2.14772727,7.01298701 L1.97727273,7.01298701 L1.97727273,6.97402597 C1.97727273,6.9525974 1.96193182,6.93506494 1.94318182,6.93506494 L1.875,6.93506494 C1.85625,6.93506494 1.84090909,6.9525974 1.84090909,6.97402597 L1.84090909,7.01298701 L1.125,7.01298701 C1.10625,7.01298701 1.09090909,7.03051948 1.09090909,7.05194805 L1.09090909,7.12987013 C1.09090909,7.1512987 1.10625,7.16883117 1.125,7.16883117 L1.84090909,7.16883117 L1.84090909,7.20779221 C1.84090909,7.22922078 1.85625,7.24675325 1.875,7.24675325 L1.94318182,7.24675325 C1.96193182,7.24675325 1.97727273,7.22922078 1.97727273,7.20779221 L1.97727273,7.16883117 L2.14772727,7.16883117 C2.16647727,7.16883117 2.18181818,7.1512987 2.18181818,7.12987013 L2.18181818,7.05194805 C2.18181818,7.03051948 2.16647727,7.01298701 2.14772727,7.01298701 Z M2.14772727,6.62337662 L1.70454545,6.62337662 L1.70454545,6.58441558 C1.70454545,6.56298701 1.68920455,6.54545455 1.67045455,6.54545455 L1.60227273,6.54545455 C1.58352273,6.54545455 1.56818182,6.56298701 1.56818182,6.58441558 L1.56818182,6.62337662 L1.125,6.62337662 C1.10625,6.62337662 1.09090909,6.64090909 1.09090909,6.66233766 L1.09090909,6.74025974 C1.09090909,6.76168831 1.10625,6.77922078 1.125,6.77922078 L1.56818182,6.77922078 L1.56818182,6.81818182 C1.56818182,6.83961039 1.58352273,6.85714286 1.60227273,6.85714286 L1.67045455,6.85714286 C1.68920455,6.85714286 1.70454545,6.83961039 1.70454545,6.81818182 L1.70454545,6.77922078 L2.14772727,6.77922078 C2.16647727,6.77922078 2.18181818,6.76168831 2.18181818,6.74025974 L2.18181818,6.66233766 C2.18181818,6.64090909 2.16647727,6.62337662 2.14772727,6.62337662 Z" id="Shape" fill="#616DB4"></path>
                    <g id="cog-solid" fill="#5C6BC0">
                        <path d="M23.6672269,15.5341504 L21.5193277,14.2922261 C21.7361345,13.1209804 21.7361345,11.9194439 21.5193277,10.7481983 L23.6672269,9.50627401 C23.9142857,9.36491677 24.0252101,9.07210536 23.9445378,8.79948784 C23.3848739,7.00223157 22.4319328,5.37662338 21.1865546,4.02363271 C20.994958,3.81664533 20.6823529,3.7661606 20.4403361,3.90751783 L18.292437,5.14944211 C17.389916,4.37197732 16.3512605,3.77120907 15.2268908,3.37742821 L15.2268908,0.898628132 C15.2268908,0.615913664 15.0302521,0.368538504 14.7529412,0.307956832 C12.902521,-0.106017926 11.0067227,-0.0858240351 9.24705882,0.307956832 C8.9697479,0.368538504 8.77310924,0.615913664 8.77310924,0.898628132 L8.77310924,3.38247668 C7.65378151,3.78130602 6.61512605,4.38207426 5.70756303,5.15449058 L3.56470588,3.91256631 C3.31764706,3.77120907 3.01008403,3.81664533 2.81848739,4.02868118 C1.57310924,5.37662338 0.620168067,7.00223157 0.0605042017,8.80453631 C-0.025210084,9.07715383 0.0907563025,9.36996525 0.337815126,9.51132248 L2.48571429,10.7532468 C2.26890756,11.9244924 2.26890756,13.1260289 2.48571429,14.2972746 L0.337815126,15.5391988 C0.0907563025,15.6805561 -0.0201680672,15.9733675 0.0605042017,16.245985 C0.620168067,18.0432413 1.57310924,19.6688495 2.81848739,21.0218401 C3.01008403,21.2288275 3.32268908,21.2793122 3.56470588,21.137955 L5.71260504,19.8960307 C6.61512605,20.6734955 7.65378151,21.2742638 8.77815126,21.6680446 L8.77815126,24.1518932 C8.77815126,24.4346076 8.97478992,24.6819828 9.25210084,24.7425645 C11.102521,25.1565392 12.9983193,25.1363453 14.7579832,24.7425645 C15.0352941,24.6819828 15.2319328,24.4346076 15.2319328,24.1518932 L15.2319328,21.6680446 C16.3512605,21.2692153 17.389916,20.668447 18.297479,19.8960307 L20.4453782,21.137955 C20.692437,21.2793122 21,21.233876 21.1915966,21.0218401 C22.4369748,19.6738979 23.389916,18.0482897 23.9495798,16.245985 C24.0252101,15.968319 23.9142857,15.6755076 23.6672269,15.5341504 Z M12,16.5589903 C9.77647059,16.5589903 7.96638655,14.7465886 7.96638655,12.5202122 C7.96638655,10.2938357 9.77647059,8.48143406 12,8.48143406 C14.2235294,8.48143406 16.0336134,10.2938357 16.0336134,12.5202122 C16.0336134,14.7465886 14.2235294,16.5589903 12,16.5589903 Z" id="Shape"></path>
                    </g>
                </g>
            </g>
        </g>
    </g>
</svg>