<svg width="16" height="15" viewBox="0 0 16 15" fill="none" xmlns="http://www.w3.org/2000/svg">
<path d="M8 0C6.06694 0 4.5 1.59106 4.5 3.55387C4.5 5.1407 6.7875 8.03287 7.66389 9.08267C7.84139 9.29533 8.15889 9.29533 8.33611 9.08267C9.2125 8.03287 11.5 5.1407 11.5 3.55387C11.5 1.59106 9.93306 0 8 0ZM8 4.73849C7.35556 4.73849 6.83333 4.20823 6.83333 3.55387C6.83333 2.8995 7.35556 2.36924 8 2.36924C8.64444 2.36924 9.16667 2.8995 9.16667 3.55387C9.16667 4.20823 8.64444 4.73849 8 4.73849ZM0.558889 6.09093C0.393938 6.15792 0.252536 6.27356 0.152919 6.42292C0.0533024 6.57228 3.95058e-05 6.74852 0 6.92891L0 13.9893C0 14.3085 0.3175 14.5269 0.609444 14.4084L4.44444 12.636V6.06188C4.19889 5.61116 3.99806 5.17229 3.85417 4.75259L0.558889 6.09093ZM8 10.1446C7.60917 10.1446 7.23944 9.97029 6.98583 9.66623C6.43972 9.01187 5.85889 8.26669 5.33333 7.50232V12.6357L10.6667 14.4408V7.50261C10.1411 8.26669 9.56056 9.01215 9.01417 9.66652C8.76056 9.97029 8.39083 10.1446 8 10.1446ZM15.3906 4.54556L11.5556 6.31798V14.4411L15.4411 12.863C15.6061 12.7961 15.7475 12.6804 15.8471 12.5311C15.9468 12.3817 16 12.2054 16 12.025V4.96469C16 4.64541 15.6825 4.4271 15.3906 4.54556Z" fill="#0D2624"/>
</svg>
