<svg width="16" height="16" viewBox="0 0 16 16" fill="none" xmlns="http://www.w3.org/2000/svg">
<path fill-rule="evenodd" clip-rule="evenodd" d="M15.68 8.18177C15.68 7.6145 15.6291 7.06905 15.5345 6.54541H8V9.63996H12.3055C12.12 10.64 11.5564 11.4872 10.7091 12.0545V14.0618H13.2945C14.8073 12.669 15.68 10.6181 15.68 8.18177Z" fill="#4285F4"/>
<path fill-rule="evenodd" clip-rule="evenodd" d="M8.00004 16C10.16 16 11.971 15.2837 13.2946 14.0618L10.7091 12.0546C9.99277 12.5346 9.07641 12.8182 8.00004 12.8182C5.91641 12.8182 4.15277 11.4109 3.52368 9.52002H0.850952V11.5927C2.16732 14.2073 4.87277 16 8.00004 16Z" fill="#34A853"/>
<path fill-rule="evenodd" clip-rule="evenodd" d="M3.52364 9.51995C3.36364 9.03995 3.27273 8.52723 3.27273 7.99995C3.27273 7.47268 3.36364 6.95995 3.52364 6.47995V4.40723H0.850909C0.309091 5.48723 0 6.70904 0 7.99995C0 9.29086 0.309091 10.5127 0.850909 11.5927L3.52364 9.51995Z" fill="#FBBC05"/>
<path fill-rule="evenodd" clip-rule="evenodd" d="M8.00004 3.18182C9.17459 3.18182 10.2291 3.58545 11.0582 4.37818L13.3528 2.08364C11.9673 0.792727 10.1564 0 8.00004 0C4.87277 0 2.16732 1.79273 0.850952 4.40727L3.52368 6.48C4.15277 4.58909 5.91641 3.18182 8.00004 3.18182Z" fill="#EA4335"/>
</svg>
