<svg height="511pt" viewBox="-61 0 511 511.99962" width="511pt" xmlns="http://www.w3.org/2000/svg"><path d="m390.023438 194.761719c0 68.554687-35.421876 128.828125-88.953126 163.53125-8.0625 5.238281-14.796874 12.265625-19.535156 20.625l-69.945312 123.5625c-.160156.273437-.316406.535156-.496094.800781-7.472656 11.882812-25.128906 11.621094-32.160156-.800781l-69.945313-123.5625c-4.726562-8.347657-11.449219-15.378907-19.503906-20.59375-54.300781-35.1875-89.976563-96.675781-88.964844-166.433594 1.597657-111.050781 97.503907-200.394531 210.59375-191.246094 100.152344 8.054688 178.910157 91.886719 178.910157 194.117188zm0 0" fill="#5ca33b"/><path d="m390.023438 194.761719c0 68.554687-35.421876 128.828125-88.953126 163.53125-8.0625 5.238281-14.796874 12.265625-19.535156 20.625l-69.945312 123.5625c-.160156.273437-.316406.535156-.496094.800781-.179688-.265625-.339844-.527344-.496094-.800781l-69.945312-123.5625c-4.726563-8.347657-11.453125-15.378907-19.503906-20.59375-54.304688-35.1875-89.976563-96.675781-88.964844-166.433594 1.445312-100.476563 80.097656-183.222656 178.929687-191.246094 100.152344 8.054688 178.910157 91.886719 178.910157 194.117188zm0 0" fill="#6dc54a"/><path d="m339.066406 194.53125c0 79.4375-64.410156 143.804688-143.804687 143.804688-79.421875 0-143.804688-64.382813-143.804688-143.804688 0-85.367188 74.101563-152.316406 159.636719-142.929688 71.96875 7.886719 127.972656 68.867188 127.972656 142.929688zm0 0" fill="#c2eaf2"/><path d="m339.066406 194.53125c0 74.070312-56.003906 135.054688-127.972656 142.9375-71.972656-7.882812-127.972656-68.867188-127.972656-142.9375 0-74.0625 56-135.042969 127.972656-142.929688 71.96875 7.886719 127.972656 68.867188 127.972656 142.929688zm0 0" fill="#def4f8"/><path d="m273.882812 269.277344c-.507812 2.964844-1.445312 5.890625-2.820312 8.675781-4.789062 9.761719-14.078125 16.234375-24.855469 17.308594-2.59375.253906-5.234375.390625-7.851562.390625-5.996094 0-12.011719-.683594-17.867188-2.046875-20.582031-4.757813-38.070312-17.246094-49.25-35.15625l-42.964843-68.816407c-15.949219-25.539062-16.105469-57.382812-.414063-83.105468 5.773437-9.46875 15.824219-15.113282 26.894531-15.113282 5.910156 0 11.535156 1.625 16.371094 4.589844 4.082031 2.492188 7.597656 5.941406 10.234375 10.175782l9.289063 14.871093c7.421874 11.894531 3.789062 27.601563-8.09375 35.03125l-3.535157 2.203125c-6.765625 4.222656-8.835937 13.164063-4.613281 19.929688l27.347656 43.789062c2.660156 4.265625 7.25 6.808594 12.292969 6.808594 2.691406 0 5.332031-.761719 7.632813-2.195312l3.535156-2.207032c4.042968-2.523437 8.695312-3.863281 13.445312-3.863281 8.835938 0 16.898438 4.476563 21.574219 11.960937l9.289063 14.878907c4.15625 6.660156 5.636718 14.40625 4.359374 21.890625zm0 0" fill="#5ca33b"/><path d="m273.882812 269.277344c-3.472656.328125-6.988281.496094-10.542968.496094-61.503906 0-111.351563-49.847657-111.351563-111.347657 0-23.136719 7.050781-44.617187 19.136719-62.421875 4.082031 2.492188 7.597656 5.941406 10.234375 10.175782l9.289063 14.871093c7.421874 11.894531 3.789062 27.601563-8.09375 35.03125l-3.535157 2.203125c-6.765625 4.222656-8.835937 13.164063-4.613281 19.929688l27.347656 43.789062c2.660156 4.265625 7.25 6.808594 12.292969 6.808594 2.691406 0 5.332031-.761719 7.632813-2.195312l3.535156-2.207032c4.042968-2.523437 8.695312-3.863281 13.445312-3.863281 8.835938 0 16.898438 4.476563 21.574219 11.960937l9.289063 14.878907c4.15625 6.660156 5.636718 14.40625 4.359374 21.890625zm0 0" fill="#70b453"/></svg>