<svg id="Capa_1" enable-background="new 0 0 512 512" height="512" viewBox="0 0 512 512" width="512" xmlns="http://www.w3.org/2000/svg"><g><g><path d="m128.12 126.311c22.129-34.351 45.237-54.645 71.678-65.306l.031-.031s-36.55-58.677-61.922-52.522c-34.174 8.29-18.463 132.549-18.439 132.742 2.787-5.321 5.711-10.316 8.652-14.883z" fill="#a0aab7"/><path d="m256 305.094c-33.832 0-60.898-3.564-82.348-9.753-15.32 36.453-54.183 136.072-54.183 208.659h273.062c0-72.587-38.863-172.206-54.184-208.658-21.449 6.189-48.515 9.752-82.347 9.752z" fill="#dae4ea"/><path d="m120.194 486c-.471 6.143-.725 12.16-.725 18h273.062c0-5.84-.255-11.857-.725-18z" fill="#c6d0da"/><path d="m383.88 126.311c2.941 4.566 5.865 9.562 8.652 14.883.024-.189 15.736-124.452-18.439-132.742-25.372-6.155-61.922 52.522-61.922 52.522l.031.031c26.441 10.662 49.549 30.956 71.678 65.306z" fill="#a0aab7"/><path d="m383.88 126.311c2.941 4.566 5.865 9.562 8.652 14.883.008-.059 1.509-11.944 2.577-28.584-22.784-33.339-46.615-53.875-73.495-65.315-5.792 7.819-9.443 13.679-9.443 13.679l.031.031c26.441 10.662 49.549 30.956 71.678 65.306z" fill="#909ba5"/><path d="m179.752 71.398c-5.606-9.215-22.135-34.514-33.128-31.847-14.982 3.635-10.22 54.497-8.151 71.81 13.143-17.597 26.747-30.62 41.279-39.963z" fill="#909ba5"/><path d="m256 305.094c198.161 0 164.338-122.188 127.88-178.783-36.459-56.595-75.559-75.084-127.88-75.084s-91.421 18.489-127.88 75.084-70.281 178.783 127.88 178.783z" fill="#dae4ea"/><path d="m116.891 112.609c1.068 16.64 2.569 28.525 2.577 28.585 2.787-5.322 5.71-10.317 8.652-14.883 22.129-34.351 45.237-54.645 71.678-65.306l.031-.031s-3.651-5.86-9.443-13.679c-26.879 11.44-50.711 31.976-73.495 65.314z" fill="#909ba5"/><path d="m136.412 87.432c.483 9.628 1.406 18.455 2.06 23.928 13.144-17.596 26.748-30.619 41.279-39.962-1.956-3.215-5.244-8.389-9.161-13.649-11.878 7.585-23.203 17.357-34.178 29.683z" fill="#808b95"/><path d="m332.248 71.398c5.606-9.215 22.135-34.514 33.128-31.847 14.982 3.635 10.22 54.497 8.151 71.81-13.143-17.597-26.748-30.62-41.279-39.963z" fill="#909ba5"/><path d="m375.588 87.432c-.483 9.628-1.406 18.455-2.06 23.928-13.143-17.596-26.748-30.619-41.279-39.962 1.956-3.215 5.244-8.389 9.16-13.649 11.879 7.585 23.203 17.357 34.179 29.683z" fill="#808b95"/><path d="m256 287.094c-114.01 0-151.225-40.446-155.333-85.576-4.368 51.77 26.302 103.576 155.333 103.576s159.701-51.806 155.333-103.576c-4.108 45.13-41.323 85.576-155.333 85.576z" fill="#c6d0da"/><path d="m256 212.104c9.339 0 25.218-10.515 25.667-20.38.481-10.581-9.132-14.219-25.667-14.219s-26.148 3.638-25.667 14.219c.448 9.865 16.327 20.38 25.667 20.38z" fill="#909ba5"/><path d="m277.809 182.323c-5.384 6.546-15.221 11.781-21.809 11.781-6.589 0-16.425-5.235-21.809-11.781-2.692 2.211-4.045 5.276-3.858 9.4.449 9.865 16.328 20.38 25.667 20.38s25.218-10.515 25.667-20.38c.187-4.124-1.165-7.189-3.858-9.4z" fill="#808b95"/><circle cx="256" cy="368.384" fill="#f6e080" r="27.273"/><path d="m256 377.657c-11.908 0-22.027-7.634-25.746-18.273-.985 2.818-1.527 5.845-1.527 9 0 15.062 12.21 27.273 27.273 27.273s27.273-12.211 27.273-27.273c0-3.155-.542-6.182-1.527-9-3.72 10.639-13.838 18.273-25.746 18.273z" fill="#eccd61"/><path d="m159.494 331.05c25.962 6.42 57.777 10.062 96.505 10.062 38.729 0 70.544-3.641 96.506-10.062-5.495-14.685-10.499-27.001-14.158-35.708-21.449 6.189-48.515 9.753-82.348 9.753-33.832 0-60.898-3.564-82.348-9.753-3.658 8.707-8.662 21.023-14.157 35.708z" fill="#dc4955"/><path d="m256 323.094c37.365 0 66.477-4.346 88.883-11.775-2.452-6.153-4.669-11.537-6.536-15.977-21.449 6.189-48.515 9.753-82.348 9.753-33.832 0-60.898-3.564-82.348-9.753-1.866 4.44-4.083 9.824-6.536 15.977 22.408 7.429 51.521 11.775 88.885 11.775z" fill="#d82f3c"/></g><g><path d="m256 169.835c-14.04 0-23.03 2.565-28.292 8.072-2.426 2.538-5.251 7.033-4.932 14.031.554 12.185 14.055 22.818 25.71 26.35v29.66c0 4.151 3.364 7.515 7.515 7.515s7.515-3.364 7.515-7.515v-29.66c11.655-3.532 25.156-14.165 25.71-26.35.318-6.997-2.507-11.492-4.933-14.031-5.264-5.508-14.253-8.072-28.293-8.072zm18.21 21.42c-.219 4.829-11.793 13.247-18.21 13.247s-17.991-8.418-18.211-13.247c-.093-2.046.5-2.666.785-2.965.984-1.03 4.653-3.426 17.426-3.426s16.441 2.395 17.426 3.426c.284.298.877.919.784 2.965z"/><path d="m192.137 145.792c-4.151 0-7.515 3.364-7.515 7.515v18.633c0 4.151 3.364 7.515 7.515 7.515s7.515-3.364 7.515-7.515v-18.633c0-4.151-3.364-7.515-7.515-7.515z"/><path d="m319.863 145.792c-4.151 0-7.515 3.364-7.515 7.515v18.633c0 4.151 3.364 7.515 7.515 7.515s7.515-3.364 7.515-7.515v-18.633c-.001-4.151-3.365-7.515-7.515-7.515z"/><path d="m433.03 205.144h-13.695c-.447-9.224-1.973-18.514-4.309-27.635l13.864-4.772c3.924-1.351 6.01-5.627 4.659-9.552-1.35-3.923-5.62-6.011-9.552-4.66l-13.345 4.594c-2.878-8.172-6.318-16.088-10.118-23.555.91-7.901 3.685-34.463 3.391-62.134-.502-47.236-9.605-72.347-27.83-76.769-13.472-3.268-29.597 5.591-47.953 26.321-8.263 9.33-15.081 18.892-18.909 24.549-16.021-5.572-33.588-8.223-53.234-8.223-19.647 0-37.213 2.65-53.234 8.223-3.828-5.657-10.647-15.219-18.909-24.549-18.358-20.731-34.497-29.586-47.952-26.321-13.571 3.293-21.969 17.789-25.674 44.317-.574 4.111 2.293 7.908 6.402 8.482 4.114.568 7.908-2.293 8.482-6.402 2.602-18.625 7.826-30.213 14.333-31.791 7.273-1.766 19.322 6.087 33.041 21.547 6.599 7.436 12.312 15.19 16.082 20.605-24.227 11.831-44.87 31.444-64.058 60.07-.864-11.632-1.611-26.48-1.391-41.371.062-4.15-3.253-7.564-7.402-7.625-.038-.001-.076-.001-.114-.001-4.099 0-7.451 3.292-7.512 7.403-.417 28.147 2.438 55.551 3.368 63.64-3.828 7.498-7.281 15.412-10.16 23.567l-13.299-4.578c-3.925-1.353-8.201.737-9.552 4.66-1.35 3.925.736 8.201 4.66 9.552l13.803 4.751c-2.342 9.137-3.859 18.433-4.296 27.656h-13.647c-4.151 0-7.515 3.364-7.515 7.515s3.364 7.515 7.515 7.515h13.944c.792 8.701 2.71 17.215 5.985 25.338l-10.507 5.894c-3.62 2.03-4.908 6.611-2.878 10.23 2.041 3.654 6.678 4.889 10.23 2.878l10.063-5.645c11.824 18.512 31.075 32.294 57.589 41.275-9.219 22.51-23.609 60.133-34.848 100.815-2.321 9.644 11.478 13.526 14.487 4.002 6.484-23.472 14.044-45.922 21.018-64.946 18.956 4.199 40.308 6.907 63.8 8.088-4.205 5.757-6.695 12.842-6.695 20.501 0 19.211 15.63 34.841 34.842 34.841s34.841-15.629 34.841-34.841c0-7.659-2.49-14.744-6.694-20.501 23.534-1.183 44.922-3.898 63.902-8.11 29.784 80.678 36.088 132.309 37.078 156.978h-258.274c.659-18.302 3.661-39.516 8.954-63.197.905-4.05-1.645-8.068-5.695-8.973-4.051-.908-8.068 1.644-8.973 5.695-6.273 28.07-9.454 52.964-9.454 73.99 0 1.993.792 3.904 2.201 5.314 1.41 1.409 3.321 2.201 5.314 2.201h273.6c4.151 0 7.515-3.364 7.515-7.515 0-69.107-33.949-161.007-51.714-204.356 26.552-9 45.829-22.796 57.607-41.253l10.049 5.637c3.552 2.012 8.19.776 10.23-2.878 2.03-3.619.743-8.2-2.878-10.23l-10.511-5.896c3.273-8.116 5.182-16.631 5.962-25.336h13.971c4.151 0 7.515-3.364 7.515-7.515-.001-4.15-3.366-7.514-7.516-7.514zm-93.519-168.329c13.719-15.459 25.754-23.323 33.042-21.547 3.679.892 15.733 8.008 16.342 62.096.163 14.473-.568 28.819-1.408 40.127-19.187-28.626-39.83-48.239-64.057-60.07 3.77-5.415 9.482-13.169 16.081-20.606zm-83.511 351.6c-10.925 0-19.812-8.888-19.812-19.811 0-10.925 8.888-19.812 19.812-19.812s19.811 8.888 19.811 19.812c0 10.923-8.887 19.811-19.811 19.811zm51.627-94.13c-4.107.599-6.949 4.415-6.349 8.522.6 4.109 4.426 6.946 8.522 6.349 8.598-1.255 16.695-2.849 24.306-4.768 3.029 7.33 5.881 14.461 8.566 21.392-24.766 5.293-53.861 7.981-86.671 7.981-32.782 0-61.856-2.684-86.609-7.969 3.127-8.143 6.021-15.358 8.501-21.385 21.937 5.52 47.998 8.296 78.109 8.296 7.966 0 15.758-.198 23.161-.588 4.145-.218 7.327-3.754 7.109-7.899-.219-4.145-3.773-7.35-7.899-7.109-7.14.376-14.666.567-22.37.567-39.963 0-72.481-5.084-96.652-15.113-20.371-8.451-34.926-20.487-43.262-35.772-8.965-16.439-10.958-36.64-5.924-60.041 5.434-25.256 17.384-46.317 24.023-56.625 32.845-50.988 68.137-71.785 121.812-71.785s88.966 20.798 121.814 71.786c30.833 47.863 30.671 89.437 20.237 112.383-12.466 27.416-42.889 44.837-90.424 51.778z"/></g></g></svg>