<svg id="Capa_1" enable-background="new 0 0 512 512" height="512" viewBox="0 0 512 512" width="512" xmlns="http://www.w3.org/2000/svg"><g><g><path d="m384.441 171.809c28.437-66.409 16.176-147.134-6.284-161.819-21.181-13.849-60.008 49.132-60.008 49.132l.013.021c38.252 23.008 58.862 67.277 66.279 112.666z" fill="#e2ae84"/><path d="m193.839 59.143.013-.021s-38.827-62.981-60.008-49.132c-22.46 14.685-34.721 95.41-6.284 161.819 7.416-45.389 28.026-89.658 66.279-112.666z" fill="#e2ae84"/><path d="m117.629 142.104c2.51 10.04 5.785 20.024 9.93 29.705 7.417-45.389 28.027-89.658 66.28-112.666l.013-.021s-3.933-6.378-9.974-14.625c-33.872 21.346-55.094 57.75-66.249 97.607z" fill="#d7a379"/><path d="m176.796 71.764c-6.873-11.143-22.929-34.827-31.942-28.934-11.146 7.288-16.032 49.991-5.482 85.167 8.467-21.653 20.741-41.288 37.424-56.233z" fill="#cf8151"/><path d="m335.204 71.764c6.874-11.143 22.929-34.827 31.943-28.934 11.147 7.288 16.032 49.991 5.482 85.167-8.467-21.653-20.742-41.288-37.425-56.233z" fill="#cf8151"/><path d="m256 331.289c78.39 0 131.68-42.247 131.68-119.398s-36.024-169.06-131.68-169.06-131.68 91.909-131.68 169.06 53.29 119.398 131.68 119.398z" fill="#e2ae84"/><path d="m134.147 100.122c.828 9.304 2.513 18.837 5.224 27.876 8.467-21.654 20.742-41.289 37.425-56.234-2.398-3.887-5.915-9.3-9.859-14.452-13.359 11.958-24.208 26.588-32.79 42.81z" fill="#bd6e45"/><path d="m394.371 142.104c-11.154-39.857-32.376-76.261-66.247-97.607-6.041 8.247-9.974 14.625-9.974 14.625l.013.021c38.253 23.008 58.862 67.277 66.279 112.666 4.144-9.681 7.419-19.665 9.929-29.705z" fill="#d7a379"/><path d="m377.853 100.122c-8.581-16.222-19.43-30.852-32.79-42.811-3.944 5.152-7.461 10.565-9.859 14.452 16.683 14.945 28.958 34.58 37.425 56.234 2.71-9.038 4.396-18.571 5.224-27.875z" fill="#bd6e45"/><path d="m256 313.289c-75.626 0-127.884-39.325-131.475-111.373-.134 3.346-.205 6.675-.205 9.975 0 77.151 53.29 119.398 131.68 119.398s131.68-42.247 131.68-119.398c0-3.3-.071-6.629-.205-9.975-3.591 72.047-55.849 111.373-131.475 111.373z" fill="#d7a379"/><path d="m256 242.038c10.555 0 28.501-11.883 29.007-23.032.544-11.958-10.321-16.069-29.007-16.069-18.687 0-29.551 4.111-29.007 16.069.506 11.149 18.452 23.032 29.007 23.032z" fill="#909ba5"/><path d="m256 224.039c-7.902 0-19.945-6.661-25.713-14.687-2.333 2.402-3.48 5.57-3.294 9.654.507 11.149 18.453 23.033 29.007 23.033 10.555 0 28.501-11.883 29.007-23.033.186-4.084-.961-7.252-3.295-9.654-5.768 8.026-17.81 14.687-25.712 14.687z" fill="#808b95"/><path d="m341.239 308.237c-22.22 15.167-51.386 23.052-85.239 23.052s-63.019-7.886-85.239-23.052-51.292 105.36-51.292 195.763h273.062c0-90.404-51.292-195.763-51.292-195.763z" fill="#e2ae84"/><path d="m120.111 486c-.415 6.042-.642 12.054-.642 18h273.062c0-5.946-.227-11.958-.642-18z" fill="#d7a379"/><path d="m256 367.069c39.054 0 73.108-8.411 99.941-24.631-8.289-21.021-14.702-34.201-14.702-34.201-22.22 15.167-51.386 23.052-85.239 23.052s-63.019-7.886-85.239-23.052-6.413 13.18-14.702 34.201c26.832 16.22 60.887 24.631 99.941 24.631z" fill="#dc4955"/><path d="m347.366 321.732c-3.74-8.589-6.126-13.495-6.126-13.495-22.22 15.167-51.386 23.052-85.239 23.052s-63.019-7.885-85.239-23.052-2.387 4.906-6.127 13.495c22.861 18.109 54.306 27.557 91.366 27.557 37.059 0 68.503-9.448 91.365-27.557z" fill="#d82f3c"/><circle cx="256" cy="394.341" fill="#f6e080" r="27.273"/><path d="m256 403.614c-11.908 0-22.027-7.634-25.746-18.273-.985 2.819-1.527 5.845-1.527 9 0 15.062 12.21 27.273 27.273 27.273s27.273-12.21 27.273-27.273c0-3.155-.542-6.181-1.527-9-3.72 10.639-13.838 18.273-25.746 18.273z" fill="#eccd61"/></g><g><path d="m385.546 265.425c1.586-3.835-.237-8.23-4.072-9.816-3.836-1.587-8.23.237-9.817 4.073-8.492 20.531-22.884 36.535-42.779 47.567-19.944 11.062-44.464 16.67-72.876 16.67-37.503 0-68.79-10.019-90.479-28.972-22.207-19.407-33.946-48.159-33.946-83.147 0-41.15 10.51-81.107 28.835-109.623 22.283-34.675 54.443-52.256 95.589-52.256s73.307 17.581 95.589 52.256c18.325 28.516 28.835 68.472 28.835 109.623 0 7.124-.483 14.07-1.435 20.643-.595 4.108 2.252 7.92 6.36 8.515 4.108.598 7.919-2.253 8.514-6.36 1.055-7.284 1.59-14.954 1.59-22.798 0-13.434-1.013-26.611-2.969-39.33 17.203-41.511 17.234-81.544 15.677-101.908-2.549-33.337-12.139-58.516-25.652-67.351-4.63-3.026-10.164-3.936-16.003-2.635-19.609 4.378-41.733 34.684-50.752 48.194-17.667-9.163-37.729-13.879-59.755-13.879-22.035 0-42.105 4.72-59.778 13.891-3.107-4.621-7.86-11.378-13.521-18.384-14.272-17.664-26.443-27.418-37.208-29.822-5.839-1.3-11.372-.391-16.004 2.635-13.279 8.684-19.656 30.798-22.275 43.207-.857 4.061 1.74 8.047 5.801 8.904 4.063.863 8.048-1.74 8.905-5.8 4.226-20.018 10.93-30.55 15.795-33.731.822-.538 2.077-1.087 4.5-.546 11.85 2.642 29.971 24.648 41.148 41.287-13.698 9.499-25.654 22.047-35.597 37.52-9.399 14.625-16.824 31.537-22.073 49.95-5.69-20.935-8.244-43.59-7.258-65.865.183-4.147-3.029-7.657-7.175-7.84-4.14-.219-7.656 3.028-7.84 7.174-1.451 32.775 4.271 66.391 16.097 94.977-1.958 12.725-2.972 25.91-2.972 39.351 0 42.929 16.011 76.956 44.611 98.966-6.607 14.446-23.905 54.4-36.265 102.095-1.041 4.018 1.372 8.119 5.39 9.16.632.164 1.266.243 1.89.243 3.342 0 6.392-2.247 7.269-5.631 6.128-23.648 13.618-45.583 20.317-63.227 19.95 10.546 42.933 17.227 68.657 19.959-4.544 5.886-7.257 13.254-7.257 21.248 0 19.212 15.63 34.841 34.841 34.841 19.212 0 34.841-15.629 34.841-34.841 0-7.994-2.713-15.362-7.257-21.248 25.715-2.731 48.69-9.408 68.635-19.948 13.941 36.778 31.348 92.3 32.946 143.555h-258.326c.495-15.843 2.53-33.129 6.068-51.505.785-4.075-1.883-8.016-5.958-8.801-4.078-.78-8.015 1.883-8.8 5.959-4.285 22.26-6.458 43.073-6.458 61.862 0 4.151 3.365 7.515 7.515 7.515h273.6c4.15 0 7.515-3.364 7.515-7.515 0-80.266-38.686-170.216-49.46-193.709 15.459-11.833 27.104-27.018 34.687-45.352zm-15.759-250.18c2.423-.542 3.678.009 4.5.546 15.925 10.413 27.763 70.313 12.033 128.25-5.249-18.428-12.679-35.353-22.084-49.989-9.943-15.473-21.899-28.021-35.597-37.52 11.176-16.639 29.297-38.645 41.148-41.287zm-113.785 399.177c-10.924 0-19.812-8.888-19.812-19.811 0-10.925 8.888-19.812 19.812-19.812s19.812 8.888 19.812 19.812-8.888 19.811-19.812 19.811zm90.705-75.081c-24.927 13.553-55.397 20.428-90.705 20.428-35.313 0-65.789-6.877-90.72-20.437 3.43-8.459 6.409-15.307 8.55-20.08 22.033 12.792 49.792 19.697 82.17 19.697 30.993 0 57.965-6.243 80.166-18.556.676-.375 1.328-.772 1.993-1.156 2.138 4.772 5.114 11.626 8.546 20.104z"/><path d="m256.003 282.249c4.15 0 7.515-3.364 7.515-7.515v-26.343c5.036-1.405 10.389-4.069 15.277-7.703 4.95-3.681 13.322-11.358 13.779-21.417.273-5.985-1.562-11.22-5.304-15.136-5.75-6.018-15.685-8.82-31.267-8.82s-25.517 2.802-31.267 8.82c-3.743 3.916-5.577 9.151-5.304 15.136.457 10.059 8.829 17.736 13.779 21.417 4.888 3.635 10.241 6.299 15.278 7.704v26.343c-.001 4.15 3.363 7.514 7.514 7.514zm-21.558-63.661c-.11-2.42.56-3.446 1.157-4.07 1.49-1.559 6.12-4.173 20.401-4.173 14.28 0 18.911 2.615 20.401 4.173.596.624 1.267 1.651 1.157 4.07-.271 5.945-13.769 15.904-21.558 15.904-7.79 0-21.288-9.959-21.558-15.904z"/><path d="m193.642 153.305v18.633c0 4.151 3.365 7.515 7.515 7.515s7.515-3.364 7.515-7.515v-18.633c0-4.151-3.365-7.515-7.515-7.515-4.15.001-7.515 3.365-7.515 7.515z"/><path d="m303.332 153.305v18.633c0 4.151 3.365 7.515 7.515 7.515s7.515-3.364 7.515-7.515v-18.633c0-4.151-3.365-7.515-7.515-7.515-4.15.001-7.515 3.365-7.515 7.515z"/></g></g></svg>